<svg xmlns="http://www.w3.org/2000/svg" viewBox="0 0 168.6 22.22"><defs><style>.cls-1{fill:#fff;}</style></defs><g id="Layer_2" data-name="Layer 2"><g id="Layer_1-2" data-name="Layer 1"><path class="cls-1" d="M0,9.3A5.08,5.08,0,0,1,1.52,9,3.69,3.69,0,0,1,2.9,9.3v1.12A4.08,4.08,0,0,1,6.43,9.18a7.76,7.76,0,0,1,3.68,1,4.52,4.52,0,0,0-.87,1,3.83,3.83,0,0,0-.61,1.3,4.37,4.37,0,0,0-2.93-.71c-1.91.12-2.79,1.39-2.79,3.78v6.32a5.06,5.06,0,0,1-1.46.22A4.79,4.79,0,0,1,0,21.86Z"/><path class="cls-1" d="M50.87,9.3A4.64,4.64,0,0,1,52.34,9a4.18,4.18,0,0,1,1.43.26v1.12c.53-.56,1.42-1.25,3.59-1.25a5.68,5.68,0,0,1,2.24.43v2.93a4.08,4.08,0,0,0-3.21-.76c-2,.31-2.61,1.5-2.61,3.89v6.19a3.46,3.46,0,0,1-1.4.27,4.33,4.33,0,0,1-1.5-.27Z"/><path class="cls-1" d="M22,14.38v7.48a4.1,4.1,0,0,1-1.52.25,3.11,3.11,0,0,1-1.4-.25V20.55a5.58,5.58,0,0,1-8.16-.21,7,7,0,0,1-1.69-4.8,6.79,6.79,0,0,1,1.69-4.71A6.24,6.24,0,0,1,15.52,9C18.93,9,22,11.29,22,14.38m-9.8,1.16a4.37,4.37,0,0,0,1,2.94,3.17,3.17,0,0,0,2.5,1.15,3.33,3.33,0,0,0,2.61-1.11,4.3,4.3,0,0,0,1-2.91,4.3,4.3,0,0,0-1-2.91,3.29,3.29,0,0,0-2.58-1.12,3.21,3.21,0,0,0-2.5,1.13,4.19,4.19,0,0,0-1,2.84"/><path class="cls-1" d="M49.44,14.38v7.48a4.1,4.1,0,0,1-1.52.25,3.12,3.12,0,0,1-1.4-.25V20.55a5.57,5.57,0,0,1-8.16-.21,7,7,0,0,1-1.69-4.8,6.78,6.78,0,0,1,1.69-4.71A6.23,6.23,0,0,1,43,9c3.42,0,6.48,2.34,6.48,5.43m-9.8,1.16a4.38,4.38,0,0,0,1,2.94,3.17,3.17,0,0,0,2.5,1.15,3.33,3.33,0,0,0,2.61-1.11,4.31,4.31,0,0,0,1-2.91,4.31,4.31,0,0,0-1-2.91,3.29,3.29,0,0,0-2.58-1.12,3.21,3.21,0,0,0-2.5,1.13,4.19,4.19,0,0,0-1,2.84"/><path class="cls-1" d="M32.79,2.68a4.26,4.26,0,0,1,1.44-.26,4.68,4.68,0,0,1,1.48.26V21.86a3.51,3.51,0,0,1-1.36.23,5.52,5.52,0,0,1-1.56-.23V20.55a5.41,5.41,0,0,1-3.88,1.68,5.53,5.53,0,0,1-4.28-1.88,7,7,0,0,1-1.69-4.8,6.77,6.77,0,0,1,1.69-4.69,5.43,5.43,0,0,1,8.16-.09ZM25.91,15.54a4.37,4.37,0,0,0,1,2.94,3.17,3.17,0,0,0,2.5,1.15A3.33,3.33,0,0,0,32,18.52a4.3,4.3,0,0,0,1-2.91,4.3,4.3,0,0,0-1-2.91,3.29,3.29,0,0,0-2.58-1.12,3.21,3.21,0,0,0-2.5,1.13,4.19,4.19,0,0,0-1,2.84"/><path class="cls-1" d="M60.3,4.08a1.89,1.89,0,0,1,1.88-1.87,1.83,1.83,0,0,1,1.34.55,1.78,1.78,0,0,1,.55,1.33,1.83,1.83,0,0,1-.55,1.34A1.78,1.78,0,0,1,62.19,6a1.89,1.89,0,0,1-1.9-1.91M63.64,9.3V21.86a3.67,3.67,0,0,1-1.43.27,4.09,4.09,0,0,1-1.47-.27V9.3a4.74,4.74,0,0,1,1.42-.24,5.38,5.38,0,0,1,1.48.24"/><path class="cls-1" d="M64.69,15.49a6.24,6.24,0,0,1,1.95-4.63,6.87,6.87,0,0,1,9.52,0,6.39,6.39,0,0,1,1.93,4.72,6.36,6.36,0,0,1-1.95,4.73,6.65,6.65,0,0,1-4.81,1.89,6.37,6.37,0,0,1-4.73-1.93,6.5,6.5,0,0,1-1.91-4.8m3,.05a4.24,4.24,0,0,0,1,3,3.91,3.91,0,0,0,5.44,0,4.12,4.12,0,0,0,1-2.93,4.12,4.12,0,0,0-1-2.93,3.86,3.86,0,0,0-5.41,0,4,4,0,0,0-1,2.86"/><path class="cls-1" d="M85.57.69,79.66,0a1.36,1.36,0,0,0-1.56,1.46L78.38,8a1.74,1.74,0,0,0,1.72,1.65h4.31a1.93,1.93,0,0,0,1.86-1.63L87,2.51A1.62,1.62,0,0,0,85.57.69M84.25,3.56a1.56,1.56,0,0,0-.25.53,1.77,1.77,0,0,0-1.19-.29c-.78,0-1.13.56-1.13,1.53V7.9a2,2,0,0,1-.59.09,1.94,1.94,0,0,1-.58-.09V2.8a2.05,2.05,0,0,1,.62-.12,1.48,1.48,0,0,1,.56.12v.45a1.67,1.67,0,0,1,1.43-.51,3.15,3.15,0,0,1,1.49.42,1.86,1.86,0,0,0-.35.4"/><path class="cls-1" d="M101.43,10.6v0a1.37,1.37,0,0,1,.45-1.07,1.71,1.71,0,0,1,1.22-.44,1.61,1.61,0,0,1,1.26.55,2,2,0,0,1,.49,1.39v.81a2,2,0,0,1-.49,1.39,1.61,1.61,0,0,1-1.26.55,1.77,1.77,0,0,1-1.23-.41,1.35,1.35,0,0,1-.44-1.09v0H102a1,1,0,0,0,.28.76,1.07,1.07,0,0,0,.79.28,1,1,0,0,0,.82-.41,1.68,1.68,0,0,0,.31-1v-.25h-1.79v-.48h1.79V11a1.7,1.7,0,0,0-.31-1,1,1,0,0,0-.82-.42,1.07,1.07,0,0,0-.79.28,1,1,0,0,0-.28.76Z"/><path class="cls-1" d="M108.51,10.31V13.7h-.62V10.8h-1.14v1a3.11,3.11,0,0,1-.27,1.47,1,1,0,0,1-.91.47h-.17v-.52h.13a.46.46,0,0,0,.46-.32,3.2,3.2,0,0,0,.13-1.09V10.31Z"/><path class="cls-1" d="M111,13.76a1.43,1.43,0,0,1-1.12-.47,1.77,1.77,0,0,1-.42-1.22v-.14a1.74,1.74,0,0,1,.43-1.2,1.32,1.32,0,0,1,1-.48,1.28,1.28,0,0,1,1,.41,1.65,1.65,0,0,1,.35,1.1v.38h-2.19v0a1.34,1.34,0,0,0,.25.8.79.79,0,0,0,.67.31,1.56,1.56,0,0,0,.55-.09,1.25,1.25,0,0,0,.41-.25l.24.4a1.44,1.44,0,0,1-.48.3A1.93,1.93,0,0,1,111,13.76Zm-.09-3a.67.67,0,0,0-.53.26,1.23,1.23,0,0,0-.27.65v0h1.56v-.08a.94.94,0,0,0-.19-.6A.69.69,0,0,0,110.88,10.74Z"/><path class="cls-1" d="M114.26,12.26h-.4V13.7h-.62V10.31h.62v1.43h.36l1.12-1.43H116v0l-1.33,1.6,1.43,1.75v0h-.76Z"/><path class="cls-1" d="M119.56,10.8h-1.12v2.9h-.62V10.8h-1.1v-.48h2.83Z"/><path class="cls-1" d="M123.31,12.13a1.86,1.86,0,0,1-.35,1.18,1.16,1.16,0,0,1-1,.45,1.34,1.34,0,0,1-.55-.1,1,1,0,0,1-.4-.31V15h-.62V10.31h.47l.1.44a1.11,1.11,0,0,1,.41-.37,1.23,1.23,0,0,1,.58-.13,1.12,1.12,0,0,1,1,.5,2.26,2.26,0,0,1,.35,1.32Zm-.62-.07a1.78,1.78,0,0,0-.23-.94.73.73,0,0,0-.67-.37.82.82,0,0,0-.45.12.9.9,0,0,0-.3.33v1.63a.87.87,0,0,0,.3.33.85.85,0,0,0,.46.12.76.76,0,0,0,.66-.32,1.41,1.41,0,0,0,.22-.83Z"/><path class="cls-1" d="M124.15,12a1.86,1.86,0,0,1,.41-1.24,1.5,1.5,0,0,1,2.21,0,1.85,1.85,0,0,1,.41,1.24V12a1.86,1.86,0,0,1-.41,1.24,1.51,1.51,0,0,1-2.21,0,1.85,1.85,0,0,1-.41-1.24Zm.62.07a1.6,1.6,0,0,0,.23.89.82.82,0,0,0,1.34,0,1.59,1.59,0,0,0,.23-.89V12a1.59,1.59,0,0,0-.23-.88.75.75,0,0,0-.67-.35.74.74,0,0,0-.67.35,1.6,1.6,0,0,0-.23.88Z"/><path class="cls-1" d="M130.89,13.7h-.62V12.26h-1.51V13.7h-.62V10.31h.62v1.46h1.51V10.31h.62Z"/><path class="cls-1" d="M134.77,13.7h-.62V12.26h-1.51V13.7H132V10.31h.62v1.46h1.51V10.31h.62Z"/><path class="cls-1" d="M136.57,11.6h.84a1.38,1.38,0,0,1,.93.29.94.94,0,0,1,.33.75,1,1,0,0,1-.34.76,1.35,1.35,0,0,1-.93.3H136V10.31h.62Zm0,.48v1.13h.84a.66.66,0,0,0,.49-.16.54.54,0,0,0,.16-.39.57.57,0,0,0-.16-.4.64.64,0,0,0-.49-.17Zm3.32,1.61h-.62V10.31h.62Z"/><path class="cls-1" d="M142.48,13.76a1.43,1.43,0,0,1-1.12-.47,1.77,1.77,0,0,1-.42-1.22v-.14a1.74,1.74,0,0,1,.43-1.2,1.32,1.32,0,0,1,1-.48,1.28,1.28,0,0,1,1,.41,1.65,1.65,0,0,1,.35,1.1v.38h-2.19v0a1.34,1.34,0,0,0,.25.8.79.79,0,0,0,.67.31,1.56,1.56,0,0,0,.55-.09,1.25,1.25,0,0,0,.41-.25l.24.4a1.44,1.44,0,0,1-.48.3A1.93,1.93,0,0,1,142.48,13.76Zm-.09-3a.67.67,0,0,0-.53.26,1.23,1.23,0,0,0-.27.65v0h1.56v-.08A.94.94,0,0,0,143,11,.69.69,0,0,0,142.38,10.74Z"/><path class="cls-1" d="M147.54,10.51a1.29,1.29,0,0,1,1,.43,1.61,1.61,0,0,1,.38,1.1v.07a1.74,1.74,0,0,1-.41,1.19,1.56,1.56,0,0,1-2.21,0,1.74,1.74,0,0,1-.41-1.19v-.44a2.72,2.72,0,0,1,.42-1.6,1.75,1.75,0,0,1,1.13-.74,2,2,0,0,0,.57-.17.34.34,0,0,0,.18-.32h.47v0c0,.37-.08.61-.26.72a2.39,2.39,0,0,1-.85.27,1.49,1.49,0,0,0-.73.33,1.15,1.15,0,0,0-.37.75v0a1.42,1.42,0,0,1,.46-.32A1.45,1.45,0,0,1,147.54,10.51Zm-.12.48a.78.78,0,0,0-.67.3,1.21,1.21,0,0,0-.23.75v.07a1.46,1.46,0,0,0,.23.84.85.85,0,0,0,1.34,0,1.44,1.44,0,0,0,.23-.84V12a1.19,1.19,0,0,0-.23-.75A.8.8,0,0,0,147.42,11Z"/><path class="cls-1" d="M152,10.31h.62V13.7H152V11.3h0l-1.49,2.41h-.61V10.31h.61v2.4h0Z"/><path class="cls-1" d="M156.49,10.31V13.7h-.62V10.8h-1.14v1a3.11,3.11,0,0,1-.27,1.47,1,1,0,0,1-.91.47h-.17v-.52h.13a.46.46,0,0,0,.46-.32,3.2,3.2,0,0,0,.13-1.09V10.31Z"/><path class="cls-1" d="M159,13.76a1.43,1.43,0,0,1-1.12-.47,1.77,1.77,0,0,1-.42-1.22v-.14a1.74,1.74,0,0,1,.43-1.2,1.32,1.32,0,0,1,1-.48,1.28,1.28,0,0,1,1,.41,1.65,1.65,0,0,1,.35,1.1v.38h-2.19v0a1.34,1.34,0,0,0,.25.8.79.79,0,0,0,.67.31,1.56,1.56,0,0,0,.55-.09,1.25,1.25,0,0,0,.41-.25l.24.4a1.44,1.44,0,0,1-.48.3A1.93,1.93,0,0,1,159,13.76Zm-.09-3a.67.67,0,0,0-.53.26,1.23,1.23,0,0,0-.27.65v0h1.56v-.08a.94.94,0,0,0-.19-.6A.69.69,0,0,0,158.87,10.74Z"/><path class="cls-1" d="M163.75,10.8h-1.12v2.9H162V10.8h-1.1v-.48h2.83Z"/><path class="cls-1" d="M165.28,11.6h.84a1.38,1.38,0,0,1,.93.29.94.94,0,0,1,.33.75,1,1,0,0,1-.34.76,1.35,1.35,0,0,1-.93.3h-1.46V10.31h.62Zm0,.48v1.13h.84a.66.66,0,0,0,.49-.16.54.54,0,0,0,.16-.39.57.57,0,0,0-.16-.4.64.64,0,0,0-.49-.17Zm3.32,1.61H168V10.31h.62Z"/><path class="cls-1" d="M101.15,20.15a1.86,1.86,0,0,1,.41-1.24,1.5,1.5,0,0,1,2.21,0,1.85,1.85,0,0,1,.41,1.24v.07a1.86,1.86,0,0,1-.41,1.24,1.51,1.51,0,0,1-2.21,0,1.85,1.85,0,0,1-.41-1.24Zm.62.07a1.6,1.6,0,0,0,.23.89.82.82,0,0,0,1.34,0,1.59,1.59,0,0,0,.23-.89v-.07a1.59,1.59,0,0,0-.23-.88.75.75,0,0,0-.67-.35.74.74,0,0,0-.67.35,1.6,1.6,0,0,0-.23.88Z"/><path class="cls-1" d="M107.66,19h-1.12v2.9h-.62V19h-1.1v-.48h2.83Z"/><path class="cls-1" d="M110.65,19.9v2H110V17.33h1.65a1.73,1.73,0,0,1,1.14.33,1.19,1.19,0,0,1,.39,1,1,1,0,0,1-.18.61,1.23,1.23,0,0,1-.53.41.93.93,0,0,1,.54.4,1.3,1.3,0,0,1,.16.68v.43a1.43,1.43,0,0,0,0,.38.57.57,0,0,0,.16.27v.08h-.63a.51.51,0,0,1-.16-.31,2.64,2.64,0,0,1,0-.43v-.42a.82.82,0,0,0-.22-.59.76.76,0,0,0-.58-.23Zm0-.48h1a1.15,1.15,0,0,0,.75-.2.75.75,0,0,0,.23-.6.78.78,0,0,0-.22-.59,1,1,0,0,0-.7-.21h-1Z"/><path class="cls-1" d="M116.34,21.88c0-.1,0-.19,0-.27a1.91,1.91,0,0,1,0-.24,1.45,1.45,0,0,1-.45.41,1.15,1.15,0,0,1-.6.16,1.1,1.1,0,0,1-.8-.27,1,1,0,0,1-.28-.75.87.87,0,0,1,.39-.76,1.83,1.83,0,0,1,1.06-.27h.67v-.33a.62.62,0,0,0-.18-.47.71.71,0,0,0-.51-.17.74.74,0,0,0-.48.15.46.46,0,0,0-.19.36h-.59v0a.82.82,0,0,1,.35-.68,1.43,1.43,0,0,1,.95-.31,1.4,1.4,0,0,1,.93.29,1,1,0,0,1,.35.84V21.2a3.11,3.11,0,0,0,0,.35,1.75,1.75,0,0,0,.07.33Zm-1-.45a1.1,1.1,0,0,0,.6-.17.82.82,0,0,0,.35-.39v-.55h-.69a.9.9,0,0,0-.59.19.56.56,0,0,0-.22.44.46.46,0,0,0,.14.36A.59.59,0,0,0,115.32,21.42Z"/><path class="cls-1" d="M117.8,20.25a2.26,2.26,0,0,1,.35-1.32,1.12,1.12,0,0,1,1-.5,1.21,1.21,0,0,1,.53.11,1.09,1.09,0,0,1,.39.32V17h.62v4.88h-.5l-.07-.42a1.09,1.09,0,0,1-.41.36,1.22,1.22,0,0,1-.56.12,1.16,1.16,0,0,1-1-.45,1.86,1.86,0,0,1-.35-1.18Zm.62.07a1.44,1.44,0,0,0,.21.82.73.73,0,0,0,.65.31.81.81,0,0,0,.46-.12A.94.94,0,0,0,120,21V19.39a.94.94,0,0,0-.31-.33.82.82,0,0,0-.46-.12.7.7,0,0,0-.66.37,1.89,1.89,0,0,0-.21,1Z"/><path class="cls-1" d="M123.79,21.88c0-.1,0-.19,0-.27a1.91,1.91,0,0,1,0-.24,1.45,1.45,0,0,1-.45.41,1.15,1.15,0,0,1-.6.16,1.1,1.1,0,0,1-.8-.27,1,1,0,0,1-.28-.75.87.87,0,0,1,.39-.76,1.83,1.83,0,0,1,1.06-.27h.67v-.33a.62.62,0,0,0-.18-.47.71.71,0,0,0-.51-.17.74.74,0,0,0-.48.15.46.46,0,0,0-.19.36h-.59v0a.82.82,0,0,1,.35-.68,1.43,1.43,0,0,1,.95-.31,1.4,1.4,0,0,1,.93.29,1,1,0,0,1,.35.84V21.2a3.11,3.11,0,0,0,0,.35,1.75,1.75,0,0,0,.07.33Zm-1-.45a1.1,1.1,0,0,0,.6-.17.82.82,0,0,0,.35-.39v-.55H123a.9.9,0,0,0-.59.19.56.56,0,0,0-.22.44.46.46,0,0,0,.14.36A.59.59,0,0,0,122.77,21.42Z"/><path class="cls-1" d="M127,19l-.32,0a.71.71,0,0,0-.41.12.74.74,0,0,0-.26.33v2.42h-.62V18.49H126L126,19a1.17,1.17,0,0,1,.35-.41.83.83,0,0,1,.49-.15H127l.1,0Z"/><path class="cls-1" d="M128.46,17.63h-.62V17h.62Zm0,4.25h-.62V18.49h.62Z"/><path class="cls-1" d="M129.42,20.15a1.86,1.86,0,0,1,.41-1.24,1.5,1.5,0,0,1,2.21,0,1.85,1.85,0,0,1,.41,1.24v.07a1.86,1.86,0,0,1-.41,1.24,1.51,1.51,0,0,1-2.21,0,1.85,1.85,0,0,1-.41-1.24Zm.62.07a1.6,1.6,0,0,0,.23.89.82.82,0,0,0,1.34,0,1.59,1.59,0,0,0,.23-.89v-.07a1.59,1.59,0,0,0-.23-.88.75.75,0,0,0-.67-.35.74.74,0,0,0-.67.35,1.6,1.6,0,0,0-.23.88Z"/><rect class="cls-1" x="92.55" y="8.95" width="0.71" height="13.13"/></g></g></svg>